<svg version="1.1" viewBox="0.0 0.0 960.0 540.0" fill="none" stroke="none" stroke-linecap="square" stroke-miterlimit="10" xmlns:xlink="http://www.w3.org/1999/xlink" xmlns="http://www.w3.org/2000/svg"><clipPath id="g1b98ee59774_0_18.0"><path d="m0 0l960.0 0l0 540.0l-960.0 0l0 -540.0z" clip-rule="nonzero"/></clipPath><g clip-path="url(#g1b98ee59774_0_18.0)"><path fill="#ffffff" d="m0 0l960.0 0l0 540.0l-960.0 0z" fill-rule="evenodd"/><path fill="#000000" fill-opacity="0.0" d="m66.4462 48.514435l459.8425 0l0 50.078743l-459.8425 0z" fill-rule="evenodd"/><path fill="#000000" d="m82.11807 73.459435l-2.203125 2.296875l0 6.078125l-2.375 0l0 -18.0l2.375 0l0 8.890625l8.0 -8.890625l2.859375 0l-7.078125 7.953125l7.640625 10.046875l-2.84375 0l-6.375 -8.375zm13.676422 1.328125l0 7.046875l-2.375 0l0 -18.0l6.640625 0q2.953125 0 4.625 1.515625q1.671875 1.5 1.671875 3.984375q0 2.625 -1.640625 4.046875q-1.625 1.40625 -4.6875 1.40625l-4.234375 0zm0 -1.9375l4.265625 0q1.90625 0 2.921875 -0.890625q1.015625 -0.90625 1.015625 -2.609375q0 -1.609375 -1.015625 -2.5625q-1.015625 -0.96875 -2.78125 -1.0l-4.40625 0l0 7.0625zm16.15036 8.984375l-2.375 0l0 -18.0l2.375 0l0 18.0zm11.763565 -3.546875q0 -0.9375 -0.703125 -1.4375q-0.6875 -0.515625 -2.421875 -0.890625q-1.734375 -0.375 -2.765625 -0.890625q-1.015625 -0.515625 -1.515625 -1.234375q-0.484375 -0.71875 -0.484375 -1.703125q0 -1.65625 1.390625 -2.78125q1.40625 -1.140625 3.5625 -1.140625q2.28125 0 3.6875 1.171875q1.421875 1.171875 1.421875 3.0l-2.296875 0q0 -0.9375 -0.796875 -1.609375q-0.796875 -0.6875 -2.015625 -0.6875q-1.25 0 -1.953125 0.546875q-0.703125 0.546875 -0.703125 1.421875q0 0.828125 0.65625 1.25q0.65625 0.421875 2.359375 0.8125q1.71875 0.375 2.78125 0.90625q1.0625 0.53125 1.578125 1.28125q0.515625 0.75 0.515625 1.828125q0 1.78125 -1.4375 2.875q-1.4375 1.078125 -3.71875 1.078125q-1.609375 0 -2.84375 -0.5625q-1.234375 -0.578125 -1.9375 -1.59375q-0.703125 -1.03125 -0.703125 -2.21875l2.296875 0q0.0625 1.15625 0.921875 1.828125q0.859375 0.671875 2.265625 0.671875q1.296875 0 2.078125 -0.515625q0.78125 -0.53125 0.78125 -1.40625zm14.455017 3.546875l-2.375 0l0 -18.0l2.375 0l0 18.0zm6.138565 -13.375l0.078125 1.671875q1.53125 -1.921875 4.015625 -1.921875q4.234375 0 4.265625 4.78125l0 8.84375l-2.28125 0l0 -8.859375q-0.015625 -1.4375 -0.671875 -2.125q-0.640625 -0.703125 -2.015625 -0.703125q-1.109375 0 -1.953125 0.59375q-0.84375 0.59375 -1.3125 1.5625l0 9.53125l-2.28125 0l0 -13.375l2.15625 0zm17.178116 11.75q1.234375 0 2.140625 -0.734375q0.921875 -0.75 1.015625 -1.859375l2.171875 0q-0.0625 1.15625 -0.796875 2.203125q-0.734375 1.03125 -1.953125 1.65625q-1.21875 0.609375 -2.578125 0.609375q-2.734375 0 -4.34375 -1.828125q-1.609375 -1.828125 -1.609375 -4.984375l0 -0.390625q0 -1.953125 0.71875 -3.46875q0.71875 -1.53125 2.046875 -2.359375q1.34375 -0.84375 3.1875 -0.84375q2.25 0 3.734375 1.34375q1.484375 1.34375 1.59375 3.5l-2.171875 0q-0.09375 -1.296875 -0.984375 -2.125q-0.875 -0.84375 -2.171875 -0.84375q-1.75 0 -2.71875 1.265625q-0.953125 1.25 -0.953125 3.625l0 0.421875q0 2.3125 0.953125 3.5625q0.953125 1.25 2.71875 1.25zm16.16394 0.296875q-1.34375 1.578125 -3.921875 1.578125q-2.140625 0 -3.265625 -1.234375q-1.125 -1.25 -1.125 -3.6875l0 -8.703125l2.28125 0l0 8.640625q0 3.046875 2.46875 3.046875q2.625 0 3.5 -1.953125l0 -9.734375l2.28125 0l0 13.375l-2.171875 0l-0.046875 -1.328125zm8.181381 1.328125l-2.296875 0l0 -19.0l2.296875 0l0 19.0zm9.02153 -1.625q1.234375 0 2.140625 -0.734375q0.921875 -0.75 1.015625 -1.859375l2.171875 0q-0.0625 1.15625 -0.796875 2.203125q-0.734375 1.03125 -1.953125 1.65625q-1.21875 0.609375 -2.578125 0.609375q-2.734375 0 -4.34375 -1.828125q-1.609375 -1.828125 -1.609375 -4.984375l0 -0.390625q0 -1.953125 0.71875 -3.46875q0.71875 -1.53125 2.046875 -2.359375q1.34375 -0.84375 3.1875 -0.84375q2.25 0 3.734375 1.34375q1.484375 1.34375 1.59375 3.5l-2.171875 0q-0.09375 -1.296875 -0.984375 -2.125q-0.875 -0.84375 -2.171875 -0.84375q-1.75 0 -2.71875 1.265625q-0.953125 1.25 -0.953125 3.625l0 0.421875q0 2.3125 0.953125 3.5625q0.953125 1.25 2.71875 1.25zm16.16394 1.625q-0.203125 -0.390625 -0.328125 -1.40625q-1.59375 1.65625 -3.8125 1.65625q-1.96875 0 -3.25 -1.109375q-1.265625 -1.125 -1.265625 -2.84375q0 -2.09375 1.59375 -3.25q1.59375 -1.15625 4.46875 -1.15625l2.234375 0l0 -1.0625q0 -1.1875 -0.71875 -1.890625q-0.71875 -0.71875 -2.125 -0.71875q-1.21875 0 -2.046875 0.625q-0.828125 0.609375 -0.828125 1.484375l-2.296875 0q0 -1.0 0.703125 -1.9375q0.71875 -0.9375 1.9375 -1.46875q1.21875 -0.546875 2.671875 -0.546875q2.3125 0 3.625 1.15625q1.3125 1.15625 1.359375 3.1875l0 6.15625q0 1.84375 0.46875 2.921875l0 0.203125l-2.390625 0zm-3.796875 -1.75q1.0625 0 2.03125 -0.546875q0.96875 -0.5625 1.40625 -1.453125l0 -2.75l-1.796875 0q-4.203125 0 -4.203125 2.46875q0 1.078125 0.71875 1.6875q0.71875 0.59375 1.84375 0.59375zm12.402115 -14.875l0 3.25l2.5 0l0 1.765625l-2.5 0l0 8.296875q0 0.796875 0.328125 1.203125q0.34375 0.40625 1.15625 0.40625q0.390625 0 1.078125 -0.15625l0 1.859375q-0.890625 0.25 -1.75 0.25q-1.53125 0 -2.3125 -0.921875q-0.78125 -0.9375 -0.78125 -2.640625l0 -8.296875l-2.4375 0l0 -1.765625l2.4375 0l0 -3.25l2.28125 0zm10.726822 16.875q-2.71875 0 -4.421875 -1.78125q-1.703125 -1.796875 -1.703125 -4.78125l0 -0.421875q0 -2.0 0.75 -3.5625q0.765625 -1.5625 2.125 -2.4375q1.375 -0.890625 2.96875 -0.890625q2.609375 0 4.046875 1.71875q1.453125 1.71875 1.453125 4.921875l0 0.953125l-9.0625 0q0.046875 1.96875 1.15625 3.1875q1.109375 1.21875 2.8125 1.21875q1.21875 0 2.046875 -0.484375q0.84375 -0.5 1.484375 -1.3125l1.390625 1.078125q-1.6875 2.59375 -5.046875 2.59375zm-0.28125 -12.0q-1.390625 0 -2.328125 1.015625q-0.9375 1.0 -1.15625 2.8125l6.703125 0l0 -0.171875q-0.109375 -1.734375 -0.953125 -2.6875q-0.828125 -0.96875 -2.265625 -0.96875zm7.5903473 4.953125q0 -3.078125 1.453125 -4.953125q1.46875 -1.875 3.828125 -1.875q2.359375 0 3.71875 1.609375l0 -6.984375l2.296875 0l0 19.0l-2.109375 0l-0.109375 -1.4375q-1.375 1.6875 -3.8125 1.6875q-2.328125 0 -3.796875 -1.90625q-1.46875 -1.90625 -1.46875 -4.96875l0 -0.171875zm2.296875 0.25q0 2.28125 0.9375 3.578125q0.9375 1.28125 2.59375 1.28125q2.171875 0 3.171875 -1.953125l0 -6.15625q-1.015625 -1.890625 -3.140625 -1.890625q-1.6875 0 -2.625 1.296875q-0.9375 1.296875 -0.9375 3.84375z" fill-rule="nonzero"/><path fill="#000000" fill-opacity="0.0" d="m78.04724 117.249344l496.75592 0l0 266.6457l-496.75592 0z" fill-rule="evenodd"/><path fill="#000000" d="m89.54724 137.47809l7.6875 0l2.390625 -7.609375l2.390625 7.609375l7.703125 0l-6.28125 4.34375l2.296875 7.34375l-6.109375 -4.515625l-6.09375 4.515625l2.296875 -7.34375l-6.28125 -4.34375z" fill-rule="nonzero"/><path fill="#000000" d="m141.65662 140.83746q-2.71875 -0.796875 -3.96875 -1.9375q-1.25 -1.140625 -1.25 -2.828125q0 -1.90625 1.515625 -3.140625q1.53125 -1.25 3.96875 -1.25q1.65625 0 2.953125 0.640625q1.296875 0.640625 2.015625 1.78125q0.71875 1.125 0.71875 2.453125l-2.140625 0q0 -1.453125 -0.9375 -2.28125q-0.921875 -0.84375 -2.609375 -0.84375q-1.578125 0 -2.453125 0.6875q-0.875 0.6875 -0.875 1.921875q0 0.984375 0.828125 1.671875q0.828125 0.671875 2.828125 1.234375q2.015625 0.5625 3.15625 1.25q1.140625 0.671875 1.6875 1.578125q0.546875 0.90625 0.546875 2.140625q0 1.953125 -1.53125 3.140625q-1.53125 1.171875 -4.078125 1.171875q-1.65625 0 -3.109375 -0.625q-1.4375 -0.640625 -2.21875 -1.75q-0.765625 -1.109375 -0.765625 -2.515625l2.125 0q0 1.46875 1.078125 2.3125q1.078125 0.84375 2.890625 0.84375q1.671875 0 2.5625 -0.6875q0.90625 -0.6875 0.90625 -1.859375q0 -1.1875 -0.828125 -1.828125q-0.828125 -0.65625 -3.015625 -1.28125zm13.347336 7.390625q-2.4375 0 -3.96875 -1.59375q-1.515625 -1.59375 -1.515625 -4.28125l0 -0.375q0 -1.78125 0.671875 -3.171875q0.6875 -1.40625 1.90625 -2.1875q1.21875 -0.796875 2.65625 -0.796875q2.328125 0 3.625 1.546875q1.296875 1.53125 1.296875 4.390625l0 0.84375l-8.109375 0q0.046875 1.78125 1.03125 2.875q0.984375 1.078125 2.515625 1.078125q1.078125 0 1.828125 -0.4375q0.765625 -0.4375 1.328125 -1.171875l1.25 0.96875q-1.5 2.3125 -4.515625 2.3125zm-0.25 -10.734375q-1.25 0 -2.09375 0.90625q-0.828125 0.90625 -1.03125 2.53125l6.0 0l0 -0.15625q-0.09375 -1.5625 -0.84375 -2.421875q-0.75 -0.859375 -2.03125 -0.859375zm14.67482 10.515625q-0.171875 -0.359375 -0.28125 -1.265625q-1.4375 1.484375 -3.40625 1.484375q-1.78125 0 -2.921875 -1.0q-1.125 -1.0 -1.125 -2.53125q0 -1.875 1.421875 -2.90625q1.421875 -1.03125 4.0 -1.03125l2.0 0l0 -0.953125q0 -1.0625 -0.65625 -1.703125q-0.640625 -0.640625 -1.890625 -0.640625q-1.09375 0 -1.84375 0.5625q-0.734375 0.546875 -0.734375 1.328125l-2.046875 0q0 -0.890625 0.625 -1.71875q0.640625 -0.84375 1.734375 -1.328125q1.09375 -0.484375 2.390625 -0.484375q2.078125 0 3.25 1.03125q1.171875 1.03125 1.21875 2.84375l0 5.515625q0 1.640625 0.40625 2.625l0 0.171875l-2.140625 0zm-3.390625 -1.5625q0.953125 0 1.8125 -0.5q0.875 -0.5 1.265625 -1.296875l0 -2.453125l-1.609375 0q-3.765625 0 -3.765625 2.203125q0 0.96875 0.640625 1.515625q0.640625 0.53125 1.65625 0.53125zm14.105011 -8.578125q-0.453125 -0.0625 -1.0 -0.0625q-2.015625 0 -2.734375 1.703125l0 8.5l-2.046875 0l0 -11.96875l2.0 0l0.03125 1.375q1.0 -1.59375 2.84375 -1.59375q0.609375 0 0.90625 0.15625l0 1.890625zm6.4717407 8.6875q1.09375 0 1.90625 -0.65625q0.828125 -0.671875 0.921875 -1.65625l1.9375 0q-0.0625 1.015625 -0.71875 1.953125q-0.640625 0.921875 -1.734375 1.484375q-1.09375 0.546875 -2.3125 0.546875q-2.4375 0 -3.890625 -1.625q-1.4375 -1.640625 -1.4375 -4.46875l0 -0.34375q0 -1.75 0.640625 -3.109375q0.640625 -1.359375 1.84375 -2.109375q1.203125 -0.75 2.84375 -0.75q2.015625 0 3.34375 1.203125q1.328125 1.203125 1.421875 3.125l-1.9375 0q-0.09375 -1.15625 -0.890625 -1.90625q-0.78125 -0.75 -1.9375 -0.75q-1.5625 0 -2.421875 1.125q-0.859375 1.125 -0.859375 3.25l0 0.390625q0 2.0625 0.84375 3.1875q0.859375 1.109375 2.4375 1.109375zm9.109131 -9.0625q1.359375 -1.671875 3.546875 -1.671875q3.796875 0 3.828125 4.28125l0 7.90625l-2.046875 0l0 -7.921875q-0.015625 -1.296875 -0.59375 -1.90625q-0.578125 -0.625 -1.8125 -0.625q-1.0 0 -1.75 0.53125q-0.75 0.53125 -1.171875 1.390625l0 8.53125l-2.046875 0l0 -17.0l2.046875 0l0 6.484375zm19.993637 7.734375l2.96875 -9.1875l2.078125 0l-4.28125 11.96875l-1.5625 0l-4.34375 -11.96875l2.09375 0l3.046875 9.1875zm13.989746 -0.390625q0 -0.828125 -0.625 -1.28125q-0.625 -0.46875 -2.1875 -0.796875q-1.546875 -0.34375 -2.46875 -0.796875q-0.90625 -0.46875 -1.34375 -1.109375q-0.4375 -0.640625 -0.4375 -1.53125q0 -1.46875 1.25 -2.484375q1.25 -1.015625 3.1875 -1.015625q2.03125 0 3.296875 1.046875q1.265625 1.046875 1.265625 2.6875l-2.0625 0q0 -0.84375 -0.71875 -1.453125q-0.703125 -0.609375 -1.78125 -0.609375q-1.125 0 -1.765625 0.5q-0.625 0.484375 -0.625 1.265625q0 0.734375 0.578125 1.125q0.59375 0.375 2.125 0.71875q1.546875 0.328125 2.484375 0.8125q0.953125 0.46875 1.40625 1.140625q0.46875 0.671875 0.46875 1.640625q0 1.59375 -1.28125 2.5625q-1.28125 0.96875 -3.328125 0.96875q-1.4375 0 -2.546875 -0.5q-1.109375 -0.515625 -1.734375 -1.421875q-0.625 -0.921875 -0.625 -1.984375l2.046875 0q0.0625 1.03125 0.828125 1.640625q0.765625 0.59375 2.03125 0.59375q1.15625 0 1.859375 -0.46875q0.703125 -0.46875 0.703125 -1.25zm23.025253 3.171875l-2.140625 0l-8.109375 -12.40625l0 12.40625l-2.125 0l0 -16.109375l2.125 0l8.140625 12.46875l0 -12.46875l2.109375 0l0 16.109375zm10.838928 0q-0.171875 -0.359375 -0.28125 -1.265625q-1.4375 1.484375 -3.40625 1.484375q-1.78125 0 -2.921875 -1.0q-1.125 -1.0 -1.125 -2.53125q0 -1.875 1.421875 -2.90625q1.421875 -1.03125 4.0 -1.03125l2.0 0l0 -0.953125q0 -1.0625 -0.65625 -1.703125q-0.640625 -0.640625 -1.890625 -0.640625q-1.09375 0 -1.84375 0.5625q-0.734375 0.546875 -0.734375 1.328125l-2.046875 0q0 -0.890625 0.625 -1.71875q0.640625 -0.84375 1.734375 -1.328125q1.09375 -0.484375 2.390625 -0.484375q2.078125 0 3.25 1.03125q1.171875 1.03125 1.21875 2.84375l0 5.515625q0 1.640625 0.40625 2.625l0 0.171875l-2.140625 0zm-3.390625 -1.5625q0.953125 0 1.8125 -0.5q0.875 -0.5 1.265625 -1.296875l0 -2.453125l-1.609375 0q-3.765625 0 -3.765625 2.203125q0 0.96875 0.640625 1.515625q0.640625 0.53125 1.65625 0.53125zm12.11087 -1.21875l2.96875 -9.1875l2.078125 0l-4.28125 11.96875l-1.5625 0l-4.34375 -11.96875l2.09375 0l3.046875 9.1875zm9.239746 2.78125l-2.046875 0l0 -11.96875l2.046875 0l0 11.96875zm-2.203125 -15.140625q0 -0.5 0.296875 -0.84375q0.3125 -0.34375 0.90625 -0.34375q0.59375 0 0.90625 0.34375q0.3125 0.34375 0.3125 0.84375q0 0.5 -0.3125 0.828125q-0.3125 0.328125 -0.90625 0.328125q-0.59375 0 -0.90625 -0.328125q-0.296875 -0.328125 -0.296875 -0.828125zm4.9981384 9.0625q0 -2.8125 1.296875 -4.453125q1.296875 -1.65625 3.421875 -1.65625q2.1875 0 3.421875 1.546875l0.09375 -1.328125l1.875 0l0 11.6875q0 2.3125 -1.375 3.65625q-1.375 1.34375 -3.703125 1.34375q-1.296875 0 -2.53125 -0.5625q-1.234375 -0.546875 -1.890625 -1.515625l1.0625 -1.21875q1.3125 1.625 3.21875 1.625q1.484375 0 2.3125 -0.84375q0.84375 -0.84375 0.84375 -2.375l0 -1.015625q-1.21875 1.40625 -3.34375 1.40625q-2.109375 0 -3.40625 -1.6875q-1.296875 -1.6875 -1.296875 -4.609375zm2.0625 0.21875q0 2.03125 0.828125 3.1875q0.828125 1.15625 2.3125 1.15625q1.9375 0 2.84375 -1.765625l0 -5.453125q-0.9375 -1.71875 -2.8125 -1.71875q-1.5 0 -2.34375 1.171875q-0.828125 1.15625 -0.828125 3.421875zm18.523438 5.859375q-0.171875 -0.359375 -0.28125 -1.265625q-1.4375 1.484375 -3.40625 1.484375q-1.78125 0 -2.921875 -1.0q-1.125 -1.0 -1.125 -2.53125q0 -1.875 1.421875 -2.90625q1.421875 -1.03125 4.0 -1.03125l2.0 0l0 -0.953125q0 -1.0625 -0.65625 -1.703125q-0.640625 -0.640625 -1.890625 -0.640625q-1.09375 0 -1.84375 0.5625q-0.734375 0.546875 -0.734375 1.328125l-2.046875 0q0 -0.890625 0.625 -1.71875q0.640625 -0.84375 1.734375 -1.328125q1.09375 -0.484375 2.390625 -0.484375q2.078125 0 3.25 1.03125q1.171875 1.03125 1.21875 2.84375l0 5.515625q0 1.640625 0.40625 2.625l0 0.171875l-2.140625 0zm-3.390625 -1.5625q0.953125 0 1.8125 -0.5q0.875 -0.5 1.265625 -1.296875l0 -2.453125l-1.609375 0q-3.765625 0 -3.765625 2.203125q0 0.96875 0.640625 1.515625q0.640625 0.53125 1.65625 0.53125zm11.105011 -13.3125l0 2.90625l2.234375 0l0 1.578125l-2.234375 0l0 7.421875q0 0.71875 0.296875 1.078125q0.296875 0.359375 1.015625 0.359375q0.359375 0 0.96875 -0.125l0 1.65625q-0.796875 0.21875 -1.5625 0.21875q-1.375 0 -2.078125 -0.828125q-0.6875 -0.828125 -0.6875 -2.359375l0 -7.421875l-2.1875 0l0 -1.578125l2.1875 0l0 -2.90625l2.046875 0zm6.8384094 14.875l-2.046875 0l0 -11.96875l2.046875 0l0 11.96875zm-2.203125 -15.140625q0 -0.5 0.296875 -0.84375q0.3125 -0.34375 0.90625 -0.34375q0.59375 0 0.90625 0.34375q0.3125 0.34375 0.3125 0.84375q0 0.5 -0.3125 0.828125q-0.3125 0.328125 -0.90625 0.328125q-0.59375 0 -0.90625 -0.328125q-0.296875 -0.328125 -0.296875 -0.828125zm4.935608 9.046875q0 -1.765625 0.6875 -3.171875q0.703125 -1.40625 1.9375 -2.15625q1.234375 -0.765625 2.8125 -0.765625q2.453125 0 3.953125 1.6875q1.515625 1.6875 1.515625 4.5l0 0.140625q0 1.75 -0.671875 3.140625q-0.671875 1.390625 -1.921875 2.171875q-1.234375 0.765625 -2.859375 0.765625q-2.421875 0 -3.9375 -1.6875q-1.515625 -1.6875 -1.515625 -4.484375l0 -0.140625zm2.0625 0.234375q0 2.0 0.921875 3.203125q0.921875 1.203125 2.46875 1.203125q1.5625 0 2.484375 -1.21875q0.921875 -1.21875 0.921875 -3.421875q0 -1.96875 -0.9375 -3.1875q-0.9375 -1.234375 -2.484375 -1.234375q-1.515625 0 -2.453125 1.21875q-0.921875 1.203125 -0.921875 3.4375zm13.343018 -6.109375l0.0625 1.5q1.375 -1.71875 3.59375 -1.71875q3.796875 0 3.828125 4.28125l0 7.90625l-2.046875 0l0 -7.921875q-0.015625 -1.296875 -0.59375 -1.90625q-0.578125 -0.625 -1.8125 -0.625q-1.0 0 -1.75 0.53125q-0.75 0.53125 -1.171875 1.390625l0 8.53125l-2.046875 0l0 -11.96875l1.9375 0z" fill-rule="nonzero"/><path fill="#000000" d="m89.54724 191.87808l7.6875 0l2.390625 -7.609375l2.390625 7.609375l7.703125 0l-6.28125 4.34375l2.296875 7.34375l-6.109375 -4.515625l-6.09375 4.515625l2.296875 -7.34375l-6.28125 -4.34375z" fill-rule="nonzero"/><path fill="#000000" d="m148.04724 188.04996l-5.171875 0l0 14.359375l-2.125 0l0 -14.359375l-5.15625 0l0 -1.75l12.453125 0l0 1.75zm8.205368 14.359375q-0.171875 -0.359375 -0.28125 -1.265625q-1.4375 1.484375 -3.40625 1.484375q-1.78125 0 -2.921875 -1.0q-1.125 -1.0 -1.125 -2.53125q0 -1.875 1.421875 -2.90625q1.421875 -1.03125 4.0 -1.03125l2.0 0l0 -0.953125q0 -1.0625 -0.65625 -1.703125q-0.640625 -0.640625 -1.890625 -0.640625q-1.09375 0 -1.84375 0.5625q-0.734375 0.546875 -0.734375 1.328125l-2.046875 0q0 -0.890625 0.625 -1.71875q0.640625 -0.84375 1.734375 -1.328125q1.09375 -0.484375 2.390625 -0.484375q2.078125 0 3.25 1.03125q1.171875 1.03125 1.21875 2.84375l0 5.515625q0 1.640625 0.40625 2.625l0 0.171875l-2.140625 0zm-3.390625 -1.5625q0.953125 0 1.8125 -0.5q0.875 -0.5 1.265625 -1.296875l0 -2.453125l-1.609375 0q-3.765625 0 -3.765625 2.203125q0 0.96875 0.640625 1.515625q0.640625 0.53125 1.65625 0.53125zm15.292511 -1.609375q0 -0.828125 -0.625 -1.28125q-0.625 -0.46875 -2.1875 -0.796875q-1.546875 -0.34375 -2.46875 -0.796875q-0.90625 -0.46875 -1.34375 -1.109375q-0.4375 -0.640625 -0.4375 -1.53125q0 -1.46875 1.25 -2.484375q1.25 -1.015625 3.1875 -1.015625q2.03125 0 3.296875 1.046875q1.265625 1.046875 1.265625 2.6875l-2.0625 0q0 -0.84375 -0.71875 -1.453125q-0.703125 -0.609375 -1.78125 -0.609375q-1.125 0 -1.765625 0.5q-0.625 0.484375 -0.625 1.265625q0 0.734375 0.578125 1.125q0.59375 0.375 2.125 0.71875q1.546875 0.328125 2.484375 0.8125q0.953125 0.46875 1.40625 1.140625q0.46875 0.671875 0.46875 1.640625q0 1.59375 -1.28125 2.5625q-1.28125 0.96875 -3.328125 0.96875q-1.4375 0 -2.546875 -0.5q-1.109375 -0.515625 -1.734375 -1.421875q-0.625 -0.921875 -0.625 -1.984375l2.046875 0q0.0625 1.03125 0.828125 1.640625q0.765625 0.59375 2.03125 0.59375q1.15625 0 1.859375 -0.46875q0.703125 -0.46875 0.703125 -1.25zm8.057129 -2.375l-1.28125 1.34375l0 4.203125l-2.046875 0l0 -17.0l2.046875 0l0 10.28125l1.09375 -1.3125l3.734375 -3.9375l2.484375 0l-4.65625 5.0l5.1875 6.96875l-2.390625 0l-4.171875 -5.546875zm20.716751 2.375q0 -0.828125 -0.625 -1.28125q-0.625 -0.46875 -2.1875 -0.796875q-1.546875 -0.34375 -2.46875 -0.796875q-0.90625 -0.46875 -1.34375 -1.109375q-0.4375 -0.640625 -0.4375 -1.53125q0 -1.46875 1.25 -2.484375q1.25 -1.015625 3.1875 -1.015625q2.03125 0 3.296875 1.046875q1.265625 1.046875 1.265625 2.6875l-2.0625 0q0 -0.84375 -0.71875 -1.453125q-0.703125 -0.609375 -1.78125 -0.609375q-1.125 0 -1.765625 0.5q-0.625 0.484375 -0.625 1.265625q0 0.734375 0.578125 1.125q0.59375 0.375 2.125 0.71875q1.546875 0.328125 2.484375 0.8125q0.953125 0.46875 1.40625 1.140625q0.46875 0.671875 0.46875 1.640625q0 1.59375 -1.28125 2.5625q-1.28125 0.96875 -3.328125 0.96875q-1.4375 0 -2.546875 -0.5q-1.109375 -0.515625 -1.734375 -1.421875q-0.625 -0.921875 -0.625 -1.984375l2.046875 0q0.0625 1.03125 0.828125 1.640625q0.765625 0.59375 2.03125 0.59375q1.15625 0 1.859375 -0.46875q0.703125 -0.46875 0.703125 -1.25zm12.104004 1.984375q-1.1875 1.40625 -3.5 1.40625q-1.921875 0 -2.921875 -1.109375q-1.0 -1.109375 -1.015625 -3.296875l0 -7.78125l2.046875 0l0 7.734375q0 2.71875 2.21875 2.71875q2.34375 0 3.125 -1.75l0 -8.703125l2.046875 0l0 11.96875l-1.953125 0l-0.046875 -1.1875zm9.89595 -0.265625q1.09375 0 1.90625 -0.65625q0.828125 -0.671875 0.921875 -1.65625l1.9375 0q-0.0625 1.015625 -0.71875 1.953125q-0.640625 0.921875 -1.734375 1.484375q-1.09375 0.546875 -2.3125 0.546875q-2.4375 0 -3.890625 -1.625q-1.4375 -1.640625 -1.4375 -4.46875l0 -0.34375q0 -1.75 0.640625 -3.109375q0.640625 -1.359375 1.84375 -2.109375q1.203125 -0.75 2.84375 -0.75q2.015625 0 3.34375 1.203125q1.328125 1.203125 1.421875 3.125l-1.9375 0q-0.09375 -1.15625 -0.890625 -1.90625q-0.78125 -0.75 -1.9375 -0.75q-1.5625 0 -2.421875 1.125q-0.859375 1.125 -0.859375 3.25l0 0.390625q0 2.0625 0.84375 3.1875q0.859375 1.109375 2.4375 1.109375zm11.859131 0q1.09375 0 1.90625 -0.65625q0.828125 -0.671875 0.921875 -1.65625l1.9375 0q-0.0625 1.015625 -0.71875 1.953125q-0.640625 0.921875 -1.734375 1.484375q-1.09375 0.546875 -2.3125 0.546875q-2.4375 0 -3.890625 -1.625q-1.4375 -1.640625 -1.4375 -4.46875l0 -0.34375q0 -1.75 0.640625 -3.109375q0.640625 -1.359375 1.84375 -2.109375q1.203125 -0.75 2.84375 -0.75q2.015625 0 3.34375 1.203125q1.328125 1.203125 1.421875 3.125l-1.9375 0q-0.09375 -1.15625 -0.890625 -1.90625q-0.78125 -0.75 -1.9375 -0.75q-1.5625 0 -2.421875 1.125q-0.859375 1.125 -0.859375 3.25l0 0.390625q0 2.0625 0.84375 3.1875q0.859375 1.109375 2.4375 1.109375zm12.031006 1.671875q-2.4375 0 -3.96875 -1.59375q-1.515625 -1.59375 -1.515625 -4.28125l0 -0.375q0 -1.78125 0.671875 -3.171875q0.6875 -1.40625 1.90625 -2.1875q1.21875 -0.796875 2.65625 -0.796875q2.328125 0 3.625 1.546875q1.296875 1.53125 1.296875 4.390625l0 0.84375l-8.109375 0q0.046875 1.78125 1.03125 2.875q0.984375 1.078125 2.515625 1.078125q1.078125 0 1.828125 -0.4375q0.765625 -0.4375 1.328125 -1.171875l1.25 0.96875q-1.5 2.3125 -4.515625 2.3125zm-0.25 -10.734375q-1.25 0 -2.09375 0.90625q-0.828125 0.90625 -1.03125 2.53125l6.0 0l0 -0.15625q-0.09375 -1.5625 -0.84375 -2.421875q-0.75 -0.859375 -2.03125 -0.859375zm14.252945 7.34375q0 -0.828125 -0.625 -1.28125q-0.625 -0.46875 -2.1875 -0.796875q-1.546875 -0.34375 -2.46875 -0.796875q-0.90625 -0.46875 -1.34375 -1.109375q-0.4375 -0.640625 -0.4375 -1.53125q0 -1.46875 1.25 -2.484375q1.25 -1.015625 3.1875 -1.015625q2.03125 0 3.296875 1.046875q1.265625 1.046875 1.265625 2.6875l-2.0625 0q0 -0.84375 -0.71875 -1.453125q-0.703125 -0.609375 -1.78125 -0.609375q-1.125 0 -1.765625 0.5q-0.625 0.484375 -0.625 1.265625q0 0.734375 0.578125 1.125q0.59375 0.375 2.125 0.71875q1.546875 0.328125 2.484375 0.8125q0.953125 0.46875 1.40625 1.140625q0.46875 0.671875 0.46875 1.640625q0 1.59375 -1.28125 2.5625q-1.28125 0.96875 -3.328125 0.96875q-1.4375 0 -2.546875 -0.5q-1.109375 -0.515625 -1.734375 -1.421875q-0.625 -0.921875 -0.625 -1.984375l2.046875 0q0.0625 1.03125 0.828125 1.640625q0.765625 0.59375 2.03125 0.59375q1.15625 0 1.859375 -0.46875q0.703125 -0.46875 0.703125 -1.25zm11.682129 0q0 -0.828125 -0.625 -1.28125q-0.625 -0.46875 -2.1875 -0.796875q-1.546875 -0.34375 -2.46875 -0.796875q-0.90625 -0.46875 -1.34375 -1.109375q-0.4375 -0.640625 -0.4375 -1.53125q0 -1.46875 1.25 -2.484375q1.25 -1.015625 3.1875 -1.015625q2.03125 0 3.296875 1.046875q1.265625 1.046875 1.265625 2.6875l-2.0625 0q0 -0.84375 -0.71875 -1.453125q-0.703125 -0.609375 -1.78125 -0.609375q-1.125 0 -1.765625 0.5q-0.625 0.484375 -0.625 1.265625q0 0.734375 0.578125 1.125q0.59375 0.375 2.125 0.71875q1.546875 0.328125 2.484375 0.8125q0.953125 0.46875 1.40625 1.140625q0.46875 0.671875 0.46875 1.640625q0 1.59375 -1.28125 2.5625q-1.28125 0.96875 -3.328125 0.96875q-1.4375 0 -2.546875 -0.5q-1.109375 -0.515625 -1.734375 -1.421875q-0.625 -0.921875 -0.625 -1.984375l2.046875 0q0.0625 1.03125 0.828125 1.640625q0.765625 0.59375 2.03125 0.59375q1.15625 0 1.859375 -0.46875q0.703125 -0.46875 0.703125 -1.25zm16.103394 -6.96875q-0.453125 -0.0625 -1.0 -0.0625q-2.015625 0 -2.734375 1.703125l0 8.5l-2.046875 0l0 -11.96875l2.0 0l0.03125 1.375q1.0 -1.59375 2.84375 -1.59375q0.609375 0 0.90625 0.15625l0 1.890625zm8.833069 10.140625q-0.171875 -0.359375 -0.28125 -1.265625q-1.4375 1.484375 -3.40625 1.484375q-1.78125 0 -2.921875 -1.0q-1.125 -1.0 -1.125 -2.53125q0 -1.875 1.421875 -2.90625q1.421875 -1.03125 4.0 -1.03125l2.0 0l0 -0.953125q0 -1.0625 -0.65625 -1.703125q-0.640625 -0.640625 -1.890625 -0.640625q-1.09375 0 -1.84375 0.5625q-0.734375 0.546875 -0.734375 1.328125l-2.046875 0q0 -0.890625 0.625 -1.71875q0.640625 -0.84375 1.734375 -1.328125q1.09375 -0.484375 2.390625 -0.484375q2.078125 0 3.25 1.03125q1.171875 1.03125 1.21875 2.84375l0 5.515625q0 1.640625 0.40625 2.625l0 0.171875l-2.140625 0zm-3.390625 -1.5625q0.953125 0 1.8125 -0.5q0.875 -0.5 1.265625 -1.296875l0 -2.453125l-1.609375 0q-3.765625 0 -3.765625 2.203125q0 0.96875 0.640625 1.515625q0.640625 0.53125 1.65625 0.53125zm11.105011 -13.3125l0 2.90625l2.234375 0l0 1.578125l-2.234375 0l0 7.421875q0 0.71875 0.296875 1.078125q0.296875 0.359375 1.015625 0.359375q0.359375 0 0.96875 -0.125l0 1.65625q-0.796875 0.21875 -1.5625 0.21875q-1.375 0 -2.078125 -0.828125q-0.6875 -0.828125 -0.6875 -2.359375l0 -7.421875l-2.1875 0l0 -1.578125l2.1875 0l0 -2.90625l2.046875 0zm9.588379 15.09375q-2.4375 0 -3.96875 -1.59375q-1.515625 -1.59375 -1.515625 -4.28125l0 -0.375q0 -1.78125 0.671875 -3.171875q0.6875 -1.40625 1.90625 -2.1875q1.21875 -0.796875 2.65625 -0.796875q2.328125 0 3.625 1.546875q1.296875 1.53125 1.296875 4.390625l0 0.84375l-8.109375 0q0.046875 1.78125 1.03125 2.875q0.984375 1.078125 2.515625 1.078125q1.078125 0 1.828125 -0.4375q0.765625 -0.4375 1.328125 -1.171875l1.25 0.96875q-1.5 2.3125 -4.515625 2.3125zm-0.25 -10.734375q-1.25 0 -2.09375 0.90625q-0.828125 0.90625 -1.03125 2.53125l6.0 0l0 -0.15625q-0.09375 -1.5625 -0.84375 -2.421875q-0.75 -0.859375 -2.03125 -0.859375z" fill-rule="nonzero"/><path fill="#000000" d="m89.54724 246.27808l7.6875 0l2.390625 -7.609375l2.390625 7.609375l7.703125 0l-6.28125 4.34375l2.296875 7.34375l-6.109375 -4.515625l-6.09375 4.515625l2.296875 -7.34375l-6.28125 -4.34375z" fill-rule="nonzero"/><path fill="#000000" d="m148.25037 240.69995l0 10.953125q0 2.28125 -1.421875 3.734375q-1.421875 1.4375 -3.859375 1.625l-0.5625 0.015625q-2.640625 0 -4.21875 -1.421875q-1.5625 -1.4375 -1.59375 -3.9375l0 -10.96875l2.109375 0l0 10.90625q0 1.75 0.953125 2.71875q0.96875 0.96875 2.75 0.96875q1.796875 0 2.75 -0.953125q0.96875 -0.96875 0.96875 -2.71875l0 -10.921875l2.125 0zm10.003662 12.9375q0 -0.828125 -0.625 -1.28125q-0.625 -0.46875 -2.1875 -0.796875q-1.546875 -0.34375 -2.46875 -0.796875q-0.90625 -0.46875 -1.34375 -1.109375q-0.4375 -0.640625 -0.4375 -1.53125q0 -1.46875 1.25 -2.484375q1.25 -1.015625 3.1875 -1.015625q2.03125 0 3.296875 1.046875q1.265625 1.046875 1.265625 2.6875l-2.0625 0q0 -0.84375 -0.71875 -1.453125q-0.703125 -0.609375 -1.78125 -0.609375q-1.125 0 -1.765625 0.5q-0.625 0.484375 -0.625 1.265625q0 0.734375 0.578125 1.125q0.59375 0.375 2.125 0.71875q1.546875 0.328125 2.484375 0.8125q0.953125 0.46875 1.40625 1.140625q0.46875 0.671875 0.46875 1.640625q0 1.59375 -1.28125 2.5625q-1.28125 0.96875 -3.328125 0.96875q-1.4375 0 -2.546875 -0.5q-1.109375 -0.515625 -1.734375 -1.421875q-0.625 -0.921875 -0.625 -1.984375l2.046875 0q0.0625 1.03125 0.828125 1.640625q0.765625 0.59375 2.03125 0.59375q1.15625 0 1.859375 -0.46875q0.703125 -0.46875 0.703125 -1.25zm9.682129 3.390625q-2.4375 0 -3.96875 -1.59375q-1.515625 -1.59375 -1.515625 -4.28125l0 -0.375q0 -1.78125 0.671875 -3.171875q0.6875 -1.40625 1.90625 -2.1875q1.21875 -0.796875 2.65625 -0.796875q2.328125 0 3.625 1.546875q1.296875 1.53125 1.296875 4.390625l0 0.84375l-8.109375 0q0.046875 1.78125 1.03125 2.875q0.984375 1.078125 2.515625 1.078125q1.078125 0 1.828125 -0.4375q0.765625 -0.4375 1.328125 -1.171875l1.25 0.96875q-1.5 2.3125 -4.515625 2.3125zm-0.25 -10.734375q-1.25 0 -2.09375 0.90625q-0.828125 0.90625 -1.03125 2.53125l6.0 0l0 -0.15625q-0.09375 -1.5625 -0.84375 -2.421875q-0.75 -0.859375 -2.03125 -0.859375zm13.065445 0.375q-0.453125 -0.0625 -1.0 -0.0625q-2.015625 0 -2.734375 1.703125l0 8.5l-2.046875 0l0 -11.96875l2.0 0l0.03125 1.375q1.0 -1.59375 2.84375 -1.59375q0.609375 0 0.90625 0.15625l0 1.890625zm12.4626465 10.359375q-2.4375 0 -3.96875 -1.59375q-1.515625 -1.59375 -1.515625 -4.28125l0 -0.375q0 -1.78125 0.671875 -3.171875q0.6875 -1.40625 1.90625 -2.1875q1.21875 -0.796875 2.65625 -0.796875q2.328125 0 3.625 1.546875q1.296875 1.53125 1.296875 4.390625l0 0.84375l-8.109375 0q0.046875 1.78125 1.03125 2.875q0.984375 1.078125 2.515625 1.078125q1.078125 0 1.828125 -0.4375q0.765625 -0.4375 1.328125 -1.171875l1.25 0.96875q-1.5 2.3125 -4.515625 2.3125zm-0.25 -10.734375q-1.25 0 -2.09375 0.90625q-0.828125 0.90625 -1.03125 2.53125l6.0 0l0 -0.15625q-0.09375 -1.5625 -0.84375 -2.421875q-0.75 -0.859375 -2.03125 -0.859375zm13.065445 0.375q-0.453125 -0.0625 -1.0 -0.0625q-2.015625 0 -2.734375 1.703125l0 8.5l-2.046875 0l0 -11.96875l2.0 0l0.03125 1.375q1.0 -1.59375 2.84375 -1.59375q0.609375 0 0.90625 0.15625l0 1.890625zm7.666397 0q-0.453125 -0.0625 -1.0 -0.0625q-2.015625 0 -2.734375 1.703125l0 8.5l-2.046875 0l0 -11.96875l2.0 0l0.03125 1.375q1.0 -1.59375 2.84375 -1.59375q0.609375 0 0.90625 0.15625l0 1.890625zm1.1169128 4.046875q0 -1.765625 0.6875 -3.171875q0.703125 -1.40625 1.9375 -2.15625q1.234375 -0.765625 2.8125 -0.765625q2.453125 0 3.953125 1.6875q1.515625 1.6875 1.515625 4.5l0 0.140625q0 1.75 -0.671875 3.140625q-0.671875 1.390625 -1.921875 2.171875q-1.234375 0.765625 -2.859375 0.765625q-2.421875 0 -3.9375 -1.6875q-1.515625 -1.6875 -1.515625 -4.484375l0 -0.140625zm2.0625 0.234375q0 2.0 0.921875 3.203125q0.921875 1.203125 2.46875 1.203125q1.5625 0 2.484375 -1.21875q0.921875 -1.21875 0.921875 -3.421875q0 -1.96875 -0.9375 -3.1875q-0.9375 -1.234375 -2.484375 -1.234375q-1.515625 0 -2.453125 1.21875q-0.921875 1.203125 -0.921875 3.4375zm17.186768 -4.28125q-0.453125 -0.0625 -1.0 -0.0625q-2.015625 0 -2.734375 1.703125l0 8.5l-2.046875 0l0 -11.96875l2.0 0l0.03125 1.375q1.0 -1.59375 2.84375 -1.59375q0.609375 0 0.90625 0.15625l0 1.890625zm13.2751465 0q-0.453125 -0.0625 -1.0 -0.0625q-2.015625 0 -2.734375 1.703125l0 8.5l-2.046875 0l0 -11.96875l2.0 0l0.03125 1.375q1.0 -1.59375 2.84375 -1.59375q0.609375 0 0.90625 0.15625l0 1.890625zm8.833084 10.140625q-0.17189026 -0.359375 -0.28126526 -1.265625q-1.4375 1.484375 -3.40625 1.484375q-1.78125 0 -2.921875 -1.0q-1.125 -1.0 -1.125 -2.53125q0 -1.875 1.421875 -2.90625q1.421875 -1.03125 4.0 -1.03125l2.0 0l0 -0.953125q0 -1.0625 -0.65625 -1.703125q-0.640625 -0.640625 -1.890625 -0.640625q-1.09375 0 -1.84375 0.5625q-0.734375 0.546875 -0.734375 1.328125l-2.046875 0q0 -0.890625 0.625 -1.71875q0.640625 -0.84375 1.734375 -1.328125q1.09375 -0.484375 2.390625 -0.484375q2.078125 0 3.2500153 1.03125q1.171875 1.03125 1.21875 2.84375l0 5.515625q0 1.640625 0.40625 2.625l0 0.171875l-2.140625 0zm-3.3906403 -1.5625q0.953125 0 1.8125 -0.5q0.875 -0.5 1.265625 -1.296875l0 -2.453125l-1.609375 0q-3.765625 0 -3.765625 2.203125q0 0.96875 0.640625 1.515625q0.640625 0.53125 1.65625 0.53125zm11.105026 -13.3125l0 2.90625l2.234375 0l0 1.578125l-2.234375 0l0 7.421875q0 0.71875 0.296875 1.078125q0.296875 0.359375 1.015625 0.359375q0.359375 0 0.96875 -0.125l0 1.65625q-0.796875 0.21875 -1.5625 0.21875q-1.375 0 -2.078125 -0.828125q-0.6875 -0.828125 -0.6875 -2.359375l0 -7.421875l-2.1875 0l0 -1.578125l2.1875 0l0 -2.90625l2.046875 0zm9.588379 15.09375q-2.4375 0 -3.96875 -1.59375q-1.515625 -1.59375 -1.515625 -4.28125l0 -0.375q0 -1.78125 0.671875 -3.171875q0.6875 -1.40625 1.90625 -2.1875q1.21875 -0.796875 2.65625 -0.796875q2.328125 0 3.625 1.546875q1.296875 1.53125 1.296875 4.390625l0 0.84375l-8.109375 0q0.046875 1.78125 1.03125 2.875q0.984375 1.078125 2.515625 1.078125q1.078125 0 1.828125 -0.4375q0.765625 -0.4375 1.328125 -1.171875l1.25 0.96875q-1.5 2.3125 -4.515625 2.3125zm-0.25 -10.734375q-1.25 0 -2.09375 0.90625q-0.828125 0.90625 -1.03125 2.53125l6.0 0l0 -0.15625q-0.09375 -1.5625 -0.84375 -2.421875q-0.75 -0.859375 -2.03125 -0.859375z" fill-rule="nonzero"/><path fill="#000000" d="m89.54724 300.67807l7.6875 0l2.390625 -7.609375l2.390625 7.609375l7.703125 0l-6.28125 4.34375l2.296875 7.34375l-6.109375 -4.515625l-6.09375 4.515625l2.296875 -7.34375l-6.28125 -4.34375z" fill-rule="nonzero"/><path fill="#000000" d="m141.65662 304.03745q-2.71875 -0.796875 -3.96875 -1.9375q-1.25 -1.140625 -1.25 -2.828125q0 -1.90625 1.515625 -3.140625q1.53125 -1.25 3.96875 -1.25q1.65625 0 2.953125 0.640625q1.296875 0.640625 2.015625 1.78125q0.71875 1.125 0.71875 2.453125l-2.140625 0q0 -1.453125 -0.9375 -2.28125q-0.921875 -0.84375 -2.609375 -0.84375q-1.578125 0 -2.453125 0.6875q-0.875 0.6875 -0.875 1.921875q0 0.984375 0.828125 1.671875q0.828125 0.671875 2.828125 1.234375q2.015625 0.5625 3.15625 1.25q1.140625 0.671875 1.6875 1.578125q0.546875 0.90625 0.546875 2.140625q0 1.953125 -1.53125 3.140625q-1.53125 1.171875 -4.078125 1.171875q-1.65625 0 -3.109375 -0.625q-1.4375 -0.640625 -2.21875 -1.75q-0.765625 -1.109375 -0.765625 -2.515625l2.125 0q0 1.46875 1.078125 2.3125q1.078125 0.84375 2.890625 0.84375q1.671875 0 2.5625 -0.6875q0.90625 -0.6875 0.90625 -1.859375q0 -1.1875 -0.828125 -1.828125q-0.828125 -0.65625 -3.015625 -1.28125zm12.300461 4.171875l2.78125 -8.96875l2.1875 0l-4.8125 13.8125q-1.109375 2.984375 -3.546875 2.984375l-0.390625 -0.03125l-0.765625 -0.140625l0 -1.65625l0.5625 0.046875q1.03125 0 1.609375 -0.421875q0.59375 -0.421875 0.96875 -1.546875l0.453125 -1.203125l-4.265625 -11.84375l2.234375 0l2.984375 8.96875zm13.766556 -0.171875q0 -0.828125 -0.625 -1.28125q-0.625 -0.46875 -2.1875 -0.796875q-1.546875 -0.34375 -2.46875 -0.796875q-0.90625 -0.46875 -1.34375 -1.109375q-0.4375 -0.640625 -0.4375 -1.53125q0 -1.46875 1.25 -2.484375q1.25 -1.015625 3.1875 -1.015625q2.03125 0 3.296875 1.046875q1.265625 1.046875 1.265625 2.6875l-2.0625 0q0 -0.84375 -0.71875 -1.453125q-0.703125 -0.609375 -1.78125 -0.609375q-1.125 0 -1.765625 0.5q-0.625 0.484375 -0.625 1.265625q0 0.734375 0.578125 1.125q0.59375 0.375 2.125 0.71875q1.546875 0.328125 2.484375 0.8125q0.953125 0.46875 1.40625 1.140625q0.46875 0.671875 0.46875 1.640625q0 1.59375 -1.28125 2.5625q-1.28125 0.96875 -3.328125 0.96875q-1.4375 0 -2.546875 -0.5q-1.109375 -0.515625 -1.734375 -1.421875q-0.625 -0.921875 -0.625 -1.984375l2.046875 0q0.0625 1.03125 0.828125 1.640625q0.765625 0.59375 2.03125 0.59375q1.15625 0 1.859375 -0.46875q0.703125 -0.46875 0.703125 -1.25zm7.494629 -11.703125l0 2.90625l2.234375 0l0 1.578125l-2.234375 0l0 7.421875q0 0.71875 0.296875 1.078125q0.296875 0.359375 1.015625 0.359375q0.359375 0 0.96875 -0.125l0 1.65625q-0.796875 0.21875 -1.5625 0.21875q-1.375 0 -2.078125 -0.828125q-0.6875 -0.828125 -0.6875 -2.359375l0 -7.421875l-2.1875 0l0 -1.578125l2.1875 0l0 -2.90625l2.046875 0zm9.588394 15.09375q-2.4375 0 -3.96875 -1.59375q-1.515625 -1.59375 -1.515625 -4.28125l0 -0.375q0 -1.78125 0.671875 -3.171875q0.6875 -1.40625 1.90625 -2.1875q1.21875 -0.796875 2.65625 -0.796875q2.328125 0 3.625 1.546875q1.296875 1.53125 1.296875 4.390625l0 0.84375l-8.109375 0q0.046875 1.78125 1.03125 2.875q0.984375 1.078125 2.515625 1.078125q1.078125 0 1.828125 -0.4375q0.765625 -0.4375 1.328125 -1.171875l1.25 0.96875q-1.5 2.3125 -4.515625 2.3125zm-0.25 -10.734375q-1.25 0 -2.09375 0.90625q-0.828125 0.90625 -1.03125 2.53125l6.0 0l0 -0.15625q-0.09375 -1.5625 -0.84375 -2.421875q-0.75 -0.859375 -2.03125 -0.859375zm9.20607 -1.453125l0.0625 1.328125q1.3125 -1.546875 3.546875 -1.546875q2.515625 0 3.421875 1.921875q0.59375 -0.859375 1.546875 -1.390625q0.96875 -0.53125 2.265625 -0.53125q3.9375 0 4.0 4.171875l0 8.015625l-2.046875 0l0 -7.90625q0 -1.28125 -0.59375 -1.90625q-0.578125 -0.640625 -1.953125 -0.640625q-1.140625 0 -1.890625 0.6875q-0.75 0.671875 -0.875 1.828125l0 7.9375l-2.0625 0l0 -7.84375q0 -2.609375 -2.546875 -2.609375q-2.015625 0 -2.765625 1.71875l0 8.734375l-2.046875 0l0 -11.96875l1.9375 0zm35.20053 -4.140625l0 10.953125q0 2.28125 -1.421875 3.734375q-1.421875 1.4375 -3.859375 1.625l-0.5625 0.015625q-2.640625 0 -4.21875 -1.421875q-1.5625 -1.4375 -1.59375 -3.9375l0 -10.96875l2.109375 0l0 10.90625q0 1.75 0.953125 2.71875q0.96875 0.96875 2.75 0.96875q1.796875 0 2.75 -0.953125q0.96875 -0.96875 0.96875 -2.71875l0 -10.921875l2.125 0zm10.003662 12.9375q0 -0.828125 -0.625 -1.28125q-0.625 -0.46875 -2.1875 -0.796875q-1.546875 -0.34375 -2.46875 -0.796875q-0.90625 -0.46875 -1.34375 -1.109375q-0.4375 -0.640625 -0.4375 -1.53125q0 -1.46875 1.25 -2.484375q1.25 -1.015625 3.1875 -1.015625q2.03125 0 3.296875 1.046875q1.265625 1.046875 1.265625 2.6875l-2.0625 0q0 -0.84375 -0.71875 -1.453125q-0.703125 -0.609375 -1.78125 -0.609375q-1.125 0 -1.765625 0.5q-0.625 0.484375 -0.625 1.265625q0 0.734375 0.578125 1.125q0.59375 0.375 2.125 0.71875q1.546875 0.328125 2.484375 0.8125q0.953125 0.46875 1.40625 1.140625q0.46875 0.671875 0.46875 1.640625q0 1.59375 -1.28125 2.5625q-1.28125 0.96875 -3.328125 0.96875q-1.4375 0 -2.546875 -0.5q-1.109375 -0.515625 -1.734375 -1.421875q-0.625 -0.921875 -0.625 -1.984375l2.046875 0q0.0625 1.03125 0.828125 1.640625q0.765625 0.59375 2.03125 0.59375q1.15625 0 1.859375 -0.46875q0.703125 -0.46875 0.703125 -1.25zm12.104004 3.171875q-0.171875 -0.359375 -0.28125 -1.265625q-1.4375 1.484375 -3.40625 1.484375q-1.78125 0 -2.921875 -1.0q-1.125 -1.0 -1.125 -2.53125q0 -1.875 1.421875 -2.90625q1.421875 -1.03125 4.0 -1.03125l2.0 0l0 -0.953125q0 -1.0625 -0.65625 -1.703125q-0.640625 -0.640625 -1.890625 -0.640625q-1.09375 0 -1.84375 0.5625q-0.734375 0.546875 -0.734375 1.328125l-2.046875 0q0 -0.890625 0.625 -1.71875q0.640625 -0.84375 1.734375 -1.328125q1.09375 -0.484375 2.390625 -0.484375q2.078125 0 3.25 1.03125q1.171875 1.03125 1.21875 2.84375l0 5.515625q0 1.640625 0.40625 2.625l0 0.171875l-2.140625 0zm-3.390625 -1.5625q0.953125 0 1.8125 -0.5q0.875 -0.5 1.265625 -1.296875l0 -2.453125l-1.609375 0q-3.765625 0 -3.765625 2.203125q0 0.96875 0.640625 1.515625q0.640625 0.53125 1.65625 0.53125zm18.464386 -4.296875q0 2.75 -1.265625 4.421875q-1.265625 1.65625 -3.390625 1.65625q-2.265625 0 -3.5 -1.609375l-0.109375 1.390625l-1.875 0l0 -17.0l2.046875 0l0 6.34375q1.234375 -1.53125 3.40625 -1.53125q2.1875 0 3.4375 1.65625q1.25 1.640625 1.25 4.5l0 0.171875zm-2.046875 -0.21875q0 -2.09375 -0.8125 -3.234375q-0.8125 -1.140625 -2.328125 -1.140625q-2.015625 0 -2.90625 1.875l0 5.1875q0.9375 1.875 2.9375 1.875q1.46875 0 2.28125 -1.140625q0.828125 -1.140625 0.828125 -3.421875zm6.835968 6.078125l-2.046875 0l0 -11.96875l2.046875 0l0 11.96875zm-2.203125 -15.140625q0 -0.5 0.296875 -0.84375q0.3125 -0.34375 0.90625 -0.34375q0.59375 0 0.90625 0.34375q0.3125 0.34375 0.3125 0.84375q0 0.5 -0.3125 0.828125q-0.3125 0.328125 -0.90625 0.328125q-0.59375 0 -0.90625 -0.328125q-0.296875 -0.328125 -0.296875 -0.828125zm7.701233 15.140625l-2.046875 0l0 -17.0l2.046875 0l0 17.0zm5.4981384 0l-2.046875 0l0 -11.96875l2.046875 0l0 11.96875zm-2.203125 -15.140625q0 -0.5 0.296875 -0.84375q0.3125 -0.34375 0.90625 -0.34375q0.59375 0 0.90625 0.34375q0.3125 0.34375 0.3125 0.84375q0 0.5 -0.3125 0.828125q-0.3125 0.328125 -0.90625 0.328125q-0.59375 0 -0.90625 -0.328125q-0.296875 -0.328125 -0.296875 -0.828125zm8.263733 0.265625l0 2.90625l2.234375 0l0 1.578125l-2.234375 0l0 7.421875q0 0.71875 0.296875 1.078125q0.296875 0.359375 1.015625 0.359375q0.359375 0 0.96875 -0.125l0 1.65625q-0.796875 0.21875 -1.5625 0.21875q-1.375 0 -2.078125 -0.828125q-0.6875 -0.828125 -0.6875 -2.359375l0 -7.421875l-2.1875 0l0 -1.578125l2.1875 0l0 -2.90625l2.046875 0zm8.541534 11.875l2.78125 -8.96875l2.1875 0l-4.8125 13.8125q-1.109375 2.984375 -3.546875 2.984375l-0.390625 -0.03125l-0.765625 -0.140625l0 -1.65625l0.5625 0.046875q1.03125 0 1.609375 -0.421875q0.59375 -0.421875 0.96875 -1.546875l0.453125 -1.203125l-4.265625 -11.84375l2.234375 0l2.984375 8.96875zm19.375305 -0.171875q0 -0.828125 -0.625 -1.28125q-0.625 -0.46875 -2.1875 -0.796875q-1.546875 -0.34375 -2.46875 -0.796875q-0.90625 -0.46875 -1.34375 -1.109375q-0.4375 -0.640625 -0.4375 -1.53125q0 -1.46875 1.25 -2.484375q1.25 -1.015625 3.1875 -1.015625q2.03125 0 3.296875 1.046875q1.265625 1.046875 1.265625 2.6875l-2.0625 0q0 -0.84375 -0.71875 -1.453125q-0.703125 -0.609375 -1.78125 -0.609375q-1.125 0 -1.765625 0.5q-0.625 0.484375 -0.625 1.265625q0 0.734375 0.578125 1.125q0.59375 0.375 2.125 0.71875q1.546875 0.328125 2.484375 0.8125q0.953125 0.46875 1.40625 1.140625q0.46875 0.671875 0.46875 1.640625q0 1.59375 -1.28125 2.5625q-1.28125 0.96875 -3.328125 0.96875q-1.4375 0 -2.546875 -0.5q-1.109375 -0.515625 -1.734375 -1.421875q-0.625 -0.921875 -0.625 -1.984375l2.046875 0q0.0625 1.03125 0.828125 1.640625q0.765625 0.59375 2.03125 0.59375q1.15625 0 1.859375 -0.46875q0.703125 -0.46875 0.703125 -1.25zm9.510254 1.71875q1.09375 0 1.90625 -0.65625q0.828125 -0.671875 0.921875 -1.65625l1.9375 0q-0.0625 1.015625 -0.71875 1.953125q-0.640625 0.921875 -1.734375 1.484375q-1.09375 0.546875 -2.3125 0.546875q-2.4375 0 -3.890625 -1.625q-1.4375 -1.640625 -1.4375 -4.46875l0 -0.34375q0 -1.75 0.640625 -3.109375q0.640625 -1.359375 1.84375 -2.109375q1.203125 -0.75 2.84375 -0.75q2.015625 0 3.34375 1.203125q1.328125 1.203125 1.421875 3.125l-1.9375 0q-0.09375 -1.15625 -0.890625 -1.90625q-0.78125 -0.75 -1.9375 -0.75q-1.5625 0 -2.421875 1.125q-0.859375 1.125 -0.859375 3.25l0 0.390625q0 2.0625 0.84375 3.1875q0.859375 1.109375 2.4375 1.109375zm14.452881 1.453125q-0.171875 -0.359375 -0.28125 -1.265625q-1.4375 1.484375 -3.40625 1.484375q-1.78125 0 -2.921875 -1.0q-1.125 -1.0 -1.125 -2.53125q0 -1.875 1.421875 -2.90625q1.421875 -1.03125 4.0 -1.03125l2.0 0l0 -0.953125q0 -1.0625 -0.65625 -1.703125q-0.640625 -0.640625 -1.890625 -0.640625q-1.09375 0 -1.84375 0.5625q-0.734375 0.546875 -0.734375 1.328125l-2.046875 0q0 -0.890625 0.625 -1.71875q0.640625 -0.84375 1.734375 -1.328125q1.09375 -0.484375 2.390625 -0.484375q2.078125 0 3.25 1.03125q1.171875 1.03125 1.21875 2.84375l0 5.515625q0 1.640625 0.40625 2.625l0 0.171875l-2.140625 0zm-3.390625 -1.5625q0.953125 0 1.8125 -0.5q0.875 -0.5 1.265625 -1.296875l0 -2.453125l-1.609375 0q-3.765625 0 -3.765625 2.203125q0 0.96875 0.640625 1.515625q0.640625 0.53125 1.65625 0.53125zm10.54248 1.5625l-2.046875 0l0 -17.0l2.046875 0l0 17.0zm8.248138 0.21875q-2.4375 0 -3.96875 -1.59375q-1.515625 -1.59375 -1.515625 -4.28125l0 -0.375q0 -1.78125 0.671875 -3.171875q0.6875 -1.40625 1.90625 -2.1875q1.21875 -0.796875 2.65625 -0.796875q2.328125 0 3.625 1.546875q1.296875 1.53125 1.296875 4.390625l0 0.84375l-8.109375 0q0.046875 1.78125 1.03125 2.875q0.984375 1.078125 2.515625 1.078125q1.078125 0 1.828125 -0.4375q0.765625 -0.4375 1.328125 -1.171875l1.25 0.96875q-1.5 2.3125 -4.515625 2.3125zm-0.25 -10.734375q-1.25 0 -2.09375 0.90625q-0.828125 0.90625 -1.03125 2.53125l6.0 0l0 -0.15625q-0.09375 -1.5625 -0.84375 -2.421875q-0.75 -0.859375 -2.03125 -0.859375z" fill-rule="nonzero"/><path fill="#000000" d="m89.54724 355.07806l7.6875 0l2.390625 -7.609375l2.390625 7.609375l7.703125 0l-6.28125 4.34375l2.296875 7.34375l-6.109375 -4.515625l-6.09375 4.515625l2.296875 -7.34375l-6.28125 -4.34375z" fill-rule="nonzero"/><path fill="#000000" d="m148.25037 349.49994l0 10.953125q0 2.28125 -1.421875 3.734375q-1.421875 1.4375 -3.859375 1.625l-0.5625 0.015625q-2.640625 0 -4.21875 -1.421875q-1.5625 -1.4375 -1.59375 -3.9375l0 -10.96875l2.109375 0l0 10.90625q0 1.75 0.953125 2.71875q0.96875 0.96875 2.75 0.96875q1.796875 0 2.75 -0.953125q0.96875 -0.96875 0.96875 -2.71875l0 -10.921875l2.125 0zm10.003662 12.9375q0 -0.828125 -0.625 -1.28125q-0.625 -0.46875 -2.1875 -0.796875q-1.546875 -0.34375 -2.46875 -0.796875q-0.90625 -0.46875 -1.34375 -1.109375q-0.4375 -0.640625 -0.4375 -1.53125q0 -1.46875 1.25 -2.484375q1.25 -1.015625 3.1875 -1.015625q2.03125 0 3.296875 1.046875q1.265625 1.046875 1.265625 2.6875l-2.0625 0q0 -0.84375 -0.71875 -1.453125q-0.703125 -0.609375 -1.78125 -0.609375q-1.125 0 -1.765625 0.5q-0.625 0.484375 -0.625 1.265625q0 0.734375 0.578125 1.125q0.59375 0.375 2.125 0.71875q1.546875 0.328125 2.484375 0.8125q0.953125 0.46875 1.40625 1.140625q0.46875 0.671875 0.46875 1.640625q0 1.59375 -1.28125 2.5625q-1.28125 0.96875 -3.328125 0.96875q-1.4375 0 -2.546875 -0.5q-1.109375 -0.515625 -1.734375 -1.421875q-0.625 -0.921875 -0.625 -1.984375l2.046875 0q0.0625 1.03125 0.828125 1.640625q0.765625 0.59375 2.03125 0.59375q1.15625 0 1.859375 -0.46875q0.703125 -0.46875 0.703125 -1.25zm9.682129 3.390625q-2.4375 0 -3.96875 -1.59375q-1.515625 -1.59375 -1.515625 -4.28125l0 -0.375q0 -1.78125 0.671875 -3.171875q0.6875 -1.40625 1.90625 -2.1875q1.21875 -0.796875 2.65625 -0.796875q2.328125 0 3.625 1.546875q1.296875 1.53125 1.296875 4.390625l0 0.84375l-8.109375 0q0.046875 1.78125 1.03125 2.875q0.984375 1.078125 2.515625 1.078125q1.078125 0 1.828125 -0.4375q0.765625 -0.4375 1.328125 -1.171875l1.25 0.96875q-1.5 2.3125 -4.515625 2.3125zm-0.25 -10.734375q-1.25 0 -2.09375 0.90625q-0.828125 0.90625 -1.03125 2.53125l6.0 0l0 -0.15625q-0.09375 -1.5625 -0.84375 -2.421875q-0.75 -0.859375 -2.03125 -0.859375zm13.065445 0.375q-0.453125 -0.0625 -1.0 -0.0625q-2.015625 0 -2.734375 1.703125l0 8.5l-2.046875 0l0 -11.96875l2.0 0l0.03125 1.375q1.0 -1.59375 2.84375 -1.59375q0.609375 0 0.90625 0.15625l0 1.890625zm14.4626465 6.96875q0 -0.828125 -0.625 -1.28125q-0.625 -0.46875 -2.1875 -0.796875q-1.546875 -0.34375 -2.46875 -0.796875q-0.90625 -0.46875 -1.34375 -1.109375q-0.4375 -0.640625 -0.4375 -1.53125q0 -1.46875 1.25 -2.484375q1.25 -1.015625 3.1875 -1.015625q2.03125 0 3.296875 1.046875q1.265625 1.046875 1.265625 2.6875l-2.0625 0q0 -0.84375 -0.71875 -1.453125q-0.703125 -0.609375 -1.78125 -0.609375q-1.125 0 -1.765625 0.5q-0.625 0.484375 -0.625 1.265625q0 0.734375 0.578125 1.125q0.59375 0.375 2.125 0.71875q1.546875 0.328125 2.484375 0.8125q0.953125 0.46875 1.40625 1.140625q0.46875 0.671875 0.46875 1.640625q0 1.59375 -1.28125 2.5625q-1.28125 0.96875 -3.328125 0.96875q-1.4375 0 -2.546875 -0.5q-1.109375 -0.515625 -1.734375 -1.421875q-0.625 -0.921875 -0.625 -1.984375l2.046875 0q0.0625 1.03125 0.828125 1.640625q0.765625 0.59375 2.03125 0.59375q1.15625 0 1.859375 -0.46875q0.703125 -0.46875 0.703125 -1.25zm12.104004 3.171875q-0.171875 -0.359375 -0.28125 -1.265625q-1.4375 1.484375 -3.40625 1.484375q-1.78125 0 -2.921875 -1.0q-1.125 -1.0 -1.125 -2.53125q0 -1.875 1.421875 -2.90625q1.421875 -1.03125 4.0 -1.03125l2.0 0l0 -0.953125q0 -1.0625 -0.65625 -1.703125q-0.640625 -0.640625 -1.890625 -0.640625q-1.09375 0 -1.84375 0.5625q-0.734375 0.546875 -0.734375 1.328125l-2.046875 0q0 -0.890625 0.625 -1.71875q0.640625 -0.84375 1.734375 -1.328125q1.09375 -0.484375 2.390625 -0.484375q2.078125 0 3.25 1.03125q1.171875 1.03125 1.21875 2.84375l0 5.515625q0 1.640625 0.40625 2.625l0 0.171875l-2.140625 0zm-3.390625 -1.5625q0.953125 0 1.8125 -0.5q0.875 -0.5 1.265625 -1.296875l0 -2.453125l-1.609375 0q-3.765625 0 -3.765625 2.203125q0 0.96875 0.640625 1.515625q0.640625 0.53125 1.65625 0.53125zm11.105011 -13.3125l0 2.90625l2.234375 0l0 1.578125l-2.234375 0l0 7.421875q0 0.71875 0.296875 1.078125q0.296875 0.359375 1.015625 0.359375q0.359375 0 0.96875 -0.125l0 1.65625q-0.796875 0.21875 -1.5625 0.21875q-1.375 0 -2.078125 -0.828125q-0.6875 -0.828125 -0.6875 -2.359375l0 -7.421875l-2.1875 0l0 -1.578125l2.1875 0l0 -2.90625l2.046875 0zm6.838394 14.875l-2.046875 0l0 -11.96875l2.046875 0l0 11.96875zm-2.203125 -15.140625q0 -0.5 0.296875 -0.84375q0.3125 -0.34375 0.90625 -0.34375q0.59375 0 0.90625 0.34375q0.3125 0.34375 0.3125 0.84375q0 0.5 -0.3125 0.828125q-0.3125 0.328125 -0.90625 0.328125q-0.59375 0 -0.90625 -0.328125q-0.296875 -0.328125 -0.296875 -0.828125zm12.451248 11.96875q0 -0.828125 -0.625 -1.28125q-0.625 -0.46875 -2.1875 -0.796875q-1.546875 -0.34375 -2.46875 -0.796875q-0.90625 -0.46875 -1.34375 -1.109375q-0.4375 -0.640625 -0.4375 -1.53125q0 -1.46875 1.25 -2.484375q1.25 -1.015625 3.1875 -1.015625q2.03125 0 3.296875 1.046875q1.265625 1.046875 1.265625 2.6875l-2.0625 0q0 -0.84375 -0.71875 -1.453125q-0.703125 -0.609375 -1.78125 -0.609375q-1.125 0 -1.765625 0.5q-0.625 0.484375 -0.625 1.265625q0 0.734375 0.578125 1.125q0.59375 0.375 2.125 0.71875q1.546875 0.328125 2.484375 0.8125q0.953125 0.46875 1.40625 1.140625q0.46875 0.671875 0.46875 1.640625q0 1.59375 -1.28125 2.5625q-1.28125 0.96875 -3.328125 0.96875q-1.4375 0 -2.546875 -0.5q-1.109375 -0.515625 -1.734375 -1.421875q-0.625 -0.921875 -0.625 -1.984375l2.046875 0q0.0625 1.03125 0.828125 1.640625q0.765625 0.59375 2.03125 0.59375q1.15625 0 1.859375 -0.46875q0.703125 -0.46875 0.703125 -1.25zm5.729004 3.171875l0 -10.390625l-1.90625 0l0 -1.578125l1.90625 0l0 -1.234375q0 -1.921875 1.015625 -2.96875q1.03125 -1.046875 2.921875 -1.046875q0.703125 0 1.40625 0.1875l-0.125 1.65625q-0.515625 -0.109375 -1.09375 -0.109375q-1.0 0 -1.546875 0.59375q-0.53125 0.578125 -0.53125 1.65625l0 1.265625l2.546875 0l0 1.578125l-2.546875 0l0 10.390625l-2.046875 0zm14.240524 0q-0.171875 -0.359375 -0.28125 -1.265625q-1.4375 1.484375 -3.40625 1.484375q-1.78125 0 -2.921875 -1.0q-1.125 -1.0 -1.125 -2.53125q0 -1.875 1.421875 -2.90625q1.421875 -1.03125 4.0 -1.03125l2.0 0l0 -0.953125q0 -1.0625 -0.65625 -1.703125q-0.640625 -0.640625 -1.890625 -0.640625q-1.09375 0 -1.84375 0.5625q-0.734375 0.546875 -0.734375 1.328125l-2.046875 0q0 -0.890625 0.625 -1.71875q0.640625 -0.84375 1.734375 -1.328125q1.09375 -0.484375 2.390625 -0.484375q2.078125 0 3.25 1.03125q1.171875 1.03125 1.21875 2.84375l0 5.515625q0 1.640625 0.40625 2.625l0 0.171875l-2.140625 0zm-3.390625 -1.5625q0.953125 0 1.8125 -0.5q0.875 -0.5 1.265625 -1.296875l0 -2.453125l-1.609375 0q-3.765625 0 -3.765625 2.203125q0 0.96875 0.640625 1.515625q0.640625 0.53125 1.65625 0.53125zm13.120636 0.109375q1.09375 0 1.90625 -0.65625q0.828125 -0.671875 0.921875 -1.65625l1.9375 0q-0.0625 1.015625 -0.71875 1.953125q-0.640625 0.921875 -1.734375 1.484375q-1.09375 0.546875 -2.3125 0.546875q-2.4375 0 -3.890625 -1.625q-1.4375 -1.640625 -1.4375 -4.46875l0 -0.34375q0 -1.75 0.640625 -3.109375q0.640625 -1.359375 1.84375 -2.109375q1.203125 -0.75 2.84375 -0.75q2.015625 0 3.34375 1.203125q1.328125 1.203125 1.421875 3.125l-1.9375 0q-0.09375 -1.15625 -0.890625 -1.90625q-0.78125 -0.75 -1.9375 -0.75q-1.5625 0 -2.421875 1.125q-0.859375 1.125 -0.859375 3.25l0 0.390625q0 2.0625 0.84375 3.1875q0.859375 1.109375 2.4375 1.109375zm9.843506 -13.421875l0 2.90625l2.234375 0l0 1.578125l-2.234375 0l0 7.421875q0 0.71875 0.296875 1.078125q0.296875 0.359375 1.015625 0.359375q0.359375 0 0.96875 -0.125l0 1.65625q-0.796875 0.21875 -1.5625 0.21875q-1.375 0 -2.078125 -0.828125q-0.6875 -0.828125 -0.6875 -2.359375l0 -7.421875l-2.1875 0l0 -1.578125l2.1875 0l0 -2.90625l2.046875 0zm6.8384094 14.875l-2.046875 0l0 -11.96875l2.046875 0l0 11.96875zm-2.203125 -15.140625q0 -0.5 0.296875 -0.84375q0.3125 -0.34375 0.90625 -0.34375q0.59375 0 0.90625 0.34375q0.3125 0.34375 0.3125 0.84375q0 0.5 -0.3125 0.828125q-0.3125 0.328125 -0.90625 0.328125q-0.59375 0 -0.90625 -0.328125q-0.296875 -0.328125 -0.296875 -0.828125zm4.935608 9.046875q0 -1.765625 0.6875 -3.171875q0.703125 -1.40625 1.9375 -2.15625q1.234375 -0.765625 2.8125 -0.765625q2.453125 0 3.953125 1.6875q1.515625 1.6875 1.515625 4.5l0 0.140625q0 1.75 -0.671875 3.140625q-0.671875 1.390625 -1.921875 2.171875q-1.234375 0.765625 -2.859375 0.765625q-2.421875 0 -3.9375 -1.6875q-1.515625 -1.6875 -1.515625 -4.484375l0 -0.140625zm2.0625 0.234375q0 2.0 0.921875 3.203125q0.921875 1.203125 2.46875 1.203125q1.5625 0 2.484375 -1.21875q0.921875 -1.21875 0.921875 -3.421875q0 -1.96875 -0.9375 -3.1875q-0.9375 -1.234375 -2.484375 -1.234375q-1.515625 0 -2.453125 1.21875q-0.921875 1.203125 -0.921875 3.4375zm13.343018 -6.109375l0.0625 1.5q1.375 -1.71875 3.59375 -1.71875q3.796875 0 3.828125 4.28125l0 7.90625l-2.046875 0l0 -7.921875q-0.015625 -1.296875 -0.59375 -1.90625q-0.578125 -0.625 -1.8125 -0.625q-1.0 0 -1.75 0.53125q-0.75 0.53125 -1.171875 1.390625l0 8.53125l-2.046875 0l0 -11.96875l1.9375 0z" fill-rule="nonzero"/><path fill="#ffab40" d="m72.77428 100.19423l706.6456 0l0 4.2204666l-706.6456 0z" fill-rule="evenodd"/><path stroke="#ffab40" stroke-width="1.0" stroke-linejoin="round" stroke-linecap="butt" d="m72.77428 100.19423l706.6456 0l0 4.2204666l-706.6456 0z" fill-rule="evenodd"/></g></svg>